<svg width="130" height="23" viewBox="0 0 130 23" fill="none" xmlns="http://www.w3.org/2000/svg">
<path d="M14.4799 3.66817C16.4583 5.13049 17.4619 7.76842 17.4619 11.6106C17.4619 15.3955 16.5157 18.062 14.6233 19.6104C12.7308 21.1587 10.1503 21.9329 6.93888 21.9329H0V1.48901H6.56613C9.86354 1.48901 12.5015 2.20584 14.4799 3.66817ZM6.05002 5.73263V17.6606H7.25429C8.2005 17.6606 8.946 17.4886 9.51946 17.1158C10.0929 16.7431 10.523 16.1123 10.7811 15.2521C11.0678 14.3919 11.1825 13.159 11.1825 11.6106C11.1825 10.0909 11.0391 8.88667 10.7524 8.02647C10.4657 7.16628 10.0356 6.56415 9.46211 6.22007C8.88865 5.87599 8.17183 5.70396 7.25429 5.70396H6.05002V5.73263Z" fill="#282B30"/>
<path d="M29.7338 21.9329L28.9309 17.976H24.0852L23.311 21.9329H17.0029L22.9669 1.48901H30.1925L36.1279 21.9616H29.7338V21.9329ZM24.9454 13.7324H28.0994L26.5224 5.70396L24.9454 13.7324Z" fill="#282B30"/>
<path d="M52.2999 1.48901L45.7624 14.3919V21.9616H39.7124V14.4206L33.2036 1.48901H39.8271L42.8664 9.83288L45.9345 1.48901H52.2999Z" fill="#282B30"/>
<path d="M130 0.411865H55.0586V22.5883H130V0.411865Z" fill="url(#paint0_linear)"/>
<path d="M60.4141 4.64312H63.7401V5.96208C64.8871 4.81516 66.206 4.2417 67.6397 4.2417C69.3027 4.2417 70.593 4.75781 71.5392 5.81872C72.3421 6.70758 72.7435 8.16991 72.7435 10.177V18.951H69.4174V10.9512C69.4174 9.54622 69.2167 8.57133 68.8439 8.02654C68.4712 7.48176 67.7544 7.19503 66.7508 7.19503C65.6612 7.19503 64.8871 7.56778 64.4283 8.2846C63.9695 9.00143 63.7401 10.2344 63.7401 12.0408V18.951H60.4141V4.64312Z" fill="white"/>
<path d="M89.9186 12.5856H79.6823C79.7684 13.7612 80.1411 14.7074 80.8293 15.3955C81.5174 16.0837 82.3776 16.4278 83.4385 16.4278C84.27 16.4278 84.9295 16.2271 85.4743 15.8543C85.9904 15.4529 86.5925 14.7361 87.2807 13.6752L90.062 15.2235C89.6319 15.969 89.1731 16.5998 88.6857 17.1159C88.1982 17.632 87.6821 18.0621 87.1373 18.4062C86.5925 18.7503 85.9904 18.9797 85.3596 19.1517C84.7288 19.2951 84.0406 19.3811 83.2951 19.3811C81.1733 19.3811 79.4529 18.693 78.1627 17.3166C76.8724 15.9403 76.2129 14.1053 76.2129 11.8401C76.2129 9.57492 76.8437 7.73984 78.1053 6.36353C79.3669 4.98723 81.03 4.29907 83.1231 4.29907C85.2162 4.29907 86.8793 4.95855 88.1122 6.30619C89.3165 7.62515 89.9186 9.4889 89.9186 11.8401V12.5856ZM86.5352 9.86165C86.0764 8.11259 84.9582 7.22373 83.2091 7.22373C82.8077 7.22373 82.4349 7.28107 82.0909 7.39576C81.7468 7.51046 81.4314 7.68249 81.116 7.91188C80.8293 8.14126 80.5712 8.42799 80.3705 8.7434C80.1698 9.0588 79.9977 9.43155 79.9117 9.83298H86.5352V9.86165Z" fill="white"/>
<path d="M94.8502 4.64307L98.6064 12.8149L102.649 3.35278L106.721 12.8149L110.42 4.64307H114.118L106.635 20.0118L102.649 10.8078L98.635 20.0118L91.1514 4.64307H94.8502Z" fill="white"/>
<path d="M124.642 7.08038L121.918 8.5427C121.488 7.65384 120.943 7.22374 120.312 7.22374C119.997 7.22374 119.739 7.33844 119.538 7.51047C119.309 7.71118 119.223 7.96924 119.223 8.28465C119.223 8.82943 119.853 9.37422 121.144 9.91901C122.893 10.6645 124.068 11.3813 124.67 12.0121C125.273 12.643 125.588 13.5031 125.588 14.5927C125.588 15.969 125.072 17.116 124.068 18.0622C123.093 18.951 121.889 19.3811 120.484 19.3811C118.076 19.3811 116.384 18.2055 115.38 15.883L118.19 14.564C118.592 15.2522 118.878 15.6823 119.079 15.883C119.481 16.2558 119.968 16.4278 120.513 16.4278C121.631 16.4278 122.176 15.9117 122.176 14.9081C122.176 14.3347 121.746 13.7612 120.886 13.2738C120.542 13.1017 120.226 12.9584 119.882 12.7863C119.538 12.643 119.223 12.4709 118.878 12.2989C117.932 11.8401 117.244 11.3527 116.843 10.8939C116.355 10.2918 116.097 9.51759 116.097 8.60005C116.097 7.36711 116.527 6.33488 117.387 5.50336C118.248 4.70051 119.309 4.29909 120.57 4.29909C122.405 4.24174 123.753 5.18795 124.642 7.08038Z" fill="white"/>
<defs>
<linearGradient id="paint0_linear" x1="148.5" y1="-2" x2="62.9998" y2="23" gradientUnits="userSpaceOnUse">
<stop stop-color="#1A4CBB"/>
<stop offset="1" stop-color="#4679EC"/>
</linearGradient>
</defs>
</svg>
